<svg width="100pt" height="100pt" version="1.1" viewBox="0 0 100 100"
    xmlns="http://www.w3.org/2000/svg" fill="#29B1B2">
    <path
        d="m56.051 24.629c4.3789 0 8.1602-2.5898 9.9023-6.3164 8.2188 4.1445 14.57 11.371 17.586 20.105 0.33203 0.96875 1.3867 1.4805 2.3555 1.1445 0.96875-0.33203 1.4805-1.3867 1.1445-2.3555-3.4141-9.8867-10.699-18.027-20.109-22.539 0.57031-6.4609-4.5469-11.891-10.879-11.891-6.0234 0-10.926 4.9023-10.926 10.926s4.8984 10.926 10.926 10.926zm0-18.148c3.9805 0 7.2227 3.2383 7.2227 7.2227 0 3.9805-3.2383 7.2227-7.2227 7.2227-3.9805 0-7.2227-3.2383-7.2227-7.2227 0-3.9805 3.2383-7.2227 7.2227-7.2227z"></path>
    <path
        d="m39.918 75.371c-3.668 0-6.918 1.8164-8.8984 4.5977-6.793-4.3086-11.93-10.773-14.555-18.387-0.33203-0.96875-1.3906-1.4805-2.3555-1.1445-0.96875 0.33203-1.4805 1.3867-1.1445 2.3555 2.9492 8.5469 8.7617 15.781 16.441 20.535-1.9766 6.9883 3.3086 13.895 10.512 13.895 6.0234 0 10.926-4.9023 10.926-10.926s-4.9023-10.926-10.926-10.926zm0 18.148c-3.9805 0-7.2227-3.2383-7.2227-7.2227 0-3.9805 3.2383-7.2227 7.2227-7.2227 3.9805 0 7.2227 3.2383 7.2227 7.2227 0 3.9805-3.2422 7.2227-7.2227 7.2227z"></path>
    <path
        d="m86.297 47.141c-6.0234 0-10.926 4.9023-10.926 10.926 0 4.0391 2.207 7.5703 5.4727 9.4609-4.2422 7.4336-11.168 13.215-19.262 16.012-0.96875 0.33203-1.4805 1.3867-1.1445 2.3555 0.33203 0.96875 1.3867 1.4805 2.3555 1.1445 9.2188-3.1836 16.91-9.7148 21.574-18.223 6.75 1.2109 12.855-4.0078 12.855-10.75 0-6.0234-4.9023-10.926-10.926-10.926zm0 18.148c-3.9805 0-7.2227-3.2383-7.2227-7.2227 0-3.9805 3.2383-7.2227 7.2227-7.2227 3.9805 0 7.2227 3.2383 7.2227 7.2227 0 3.9805-3.2422 7.2227-7.2227 7.2227z"></path>
    <path
        d="m24.629 43.949c0-4.3789-2.5898-8.1602-6.3164-9.9023 4.1445-8.2188 11.371-14.57 20.105-17.586 0.96875-0.33203 1.4805-1.3867 1.1445-2.3555s-1.3906-1.4805-2.3555-1.1445c-9.8867 3.4141-18.027 10.699-22.539 20.109-6.4609-0.57031-11.891 4.5469-11.891 10.879 0 6.0234 4.9023 10.926 10.926 10.926s10.926-4.8984 10.926-10.926zm-18.148 0c0-3.9805 3.2383-7.2227 7.2227-7.2227 3.9805 0 7.2227 3.2383 7.2227 7.2227 0 3.9805-3.2383 7.2227-7.2227 7.2227-3.9805 0-7.2227-3.2383-7.2227-7.2227z"></path>
    <path
        d="m71.297 53.309v-14.844c0-3.8516-3.1328-6.9844-6.9844-6.9844h-28.625c-3.8516 0-6.9844 3.1328-6.9844 6.9844v14.82c0 4.3984 3.5742 7.8203 7.8203 7.8203h1.0117l-2.4102 4.7109c-0.36719 0.71484-0.23047 1.5859 0.33984 2.1523 0.56641 0.5625 1.4375 0.70703 2.1562 0.33594l13.973-7.1836h11.879c4.3164 0.011718 7.8242-3.5 7.8242-7.8125zm-29.629-12.566h9.2578c1.0234 0 1.8516 0.82812 1.8516 1.8516s-0.82812 1.8516-1.8516 1.8516h-9.2578c-1.0234 0-1.8516-0.82812-1.8516-1.8516s0.82812-1.8516 1.8516-1.8516zm20.367 12.035h-20.367c-1.0234 0-1.8516-0.82812-1.8516-1.8516 0-1.0234 0.82812-1.8516 1.8516-1.8516h20.371c1.0234 0 1.8516 0.82812 1.8516 1.8516 0 1.0234-0.83203 1.8516-1.8555 1.8516z"></path>
</svg>